<?xml version="1.0" encoding="UTF-8"?><svg id="Layer_1" xmlns="http://www.w3.org/2000/svg" viewBox="0 0 358.24 138.24"><defs><style>.cls-1{fill:#f7ac1c;}</style></defs><g><g><path class="cls-1" d="M60.39,78.81c-.36-.4-.78-.76-1.28-1.08-.5-.32-1.03-.56-1.6-.74-1.07-.4-2.42-.61-4.05-.61h-5.76c-.28,0-.53,.09-.74,.26-.22,.12-.32,.32-.32,.61v36.58c0,.29,.1,.52,.32,.69,.28,.12,.53,.17,.74,.17h5.76c1.64,0,2.99-.2,4.05-.61,1.14-.35,2.09-.95,2.88-1.82,.78-.75,1.39-1.73,1.81-2.95,.43-1.1,.64-2.34,.64-3.73v-20.11c0-1.33-.21-2.57-.64-3.73-.42-1.21-1.03-2.2-1.81-2.95Z"/><path class="cls-1" d="M11.92,42.59H6.35c-.55,0-1,.45-1,1s.45,1,1,1h4.47c.27-.76,.58-1.44,1.1-2.01Z"/><path class="cls-1" d="M107.46,92.74c-.11-.51-4.27-16.36-5.16-19.17-1.55-4.84-4.91-12.93-8.01-19.11-.21-.41,1.85-.85,3.73-1.3,1.58-.38,2.42-2.1,1.74-3.58-.6-1.3-1.38-3.03-2.21-4.98h5.18c.56,0,1-.45,1-1s-.45-1-1-1h-6.02c-1.5-3.67-3.03-7.81-3.93-11.37l4.88-1.43c.53-.16,.84-.71,.68-1.25-.15-.53-.71-.84-1.25-.68l-4.76,1.39c-.32-1.67-.45-3.14-.28-4.24,.33-2.15,.8-10.68,.68-18.44-.05-3.47-4.19-5.23-6.73-2.87-3.69,3.43-6.58,5.65-9.11,7.38-.86,.59-14.16-3.03-21.93-3.03h-.33c-7.77,0-21.08,3.62-21.93,3.03-2.53-1.73-5.42-3.95-9.11-7.38-2.54-2.36-6.68-.6-6.73,2.87-.11,7.76,.35,16.29,.68,18.44,.17,1.13,.03,2.65-.31,4.38l-5.25-1.53c-.54-.16-1.09,.15-1.25,.68-.16,.53,.15,1.09,.68,1.25l5.37,1.57c-.9,3.52-2.41,7.61-3.9,11.22h-.97c-.52,.56-.83,1.25-1.1,2.01h1.23c-.83,1.95-1.61,3.68-2.21,4.98-.68,1.48,.16,3.2,1.74,3.58,1.88,.45,3.94,.89,3.73,1.3-3.1,6.18-5.75,12.58-8.03,19.11-1.27,3.63-2.45,7.3-3.46,11.01-.66,2.43-1.27,4.87-1.82,7.33-.06,.28-.13,.55-.19,.83-1.58,7.33-2.65,14.98-.94,22.28,4.04,17.23,25.12,28.95,41.8,20.29,.86-.45,1.65-1.05,2.29-1.77,.66-.75,1.19-1.5,1.65-2.25,1.08-1.75,1.66-3.48,1.8-5.16,.46-5.58-3.91-10.37-7.69-14.64-2.43-2.75-6.05-7.62-8-10.64-1.01-1.56-1.54-3.37-1.54-5.23v-25.04c0-1.56,.68-2.89,2.02-3.99,1.35-1.1,2.99-1.65,4.9-1.65h16.1c2.34,0,4.65,.23,6.93,.7,2.27,.46,4.27,1.1,5.97,1.91,1.78,.87,3.37,1.91,4.8,3.12,1.35,1.16,2.52,2.51,3.52,4.08,.5,.81,.92,1.6,1.28,2.38,.36,.78,.64,1.6,.85,2.47,.5,1.62,.75,3.44,.75,5.46v9.15c0,2.19-.64,4.33-1.83,6.17-2.11,3.25-5.43,8.05-7.92,11.13-3.44,4.26-7.81,8.67-7.7,13.99,.04,1.88,.57,3.82,1.79,5.79,.37,.6,.79,1.2,1.29,1.81,.89,1.08,2.03,1.93,3.29,2.54,16.58,8.06,37.2-3.57,41.19-20.6,1.71-7.3,.64-14.95-.94-22.28ZM39.91,33.26c-2.04,0-3.69-1.65-3.69-3.69s1.65-3.69,3.69-3.69,3.69,1.65,3.69,3.69-1.65,3.69-3.69,3.69Zm21.76,10.5c-1.48,.47-2.77,.7-3.88,.7-1.26,0-2.3-.3-3.12-.9-.08-.06-.1-.13-.17-.19-.08,.07-.11,.15-.2,.22-.79,.58-1.8,.88-3.03,.88-1.1,0-2.38-.23-3.86-.7-.88-.28-1.37-1.22-1.09-2.1,.28-.88,1.21-1.37,2.1-1.09,2.81,.88,3.69,.47,3.89,.32,.41-.3,.45-1.27,.45-2.05-1.08-.51-2.31-1.37-2.58-2.77-.38-1.91,2.56-2.52,3.81-2.69,.36-.05,.74-.05,1.1,0,1.25,.17,4.19,.78,3.81,2.69-.29,1.47-1.62,2.35-2.73,2.85-.01,0-.03,0-.04,0,.02,.78,.11,1.63,.53,1.94,.21,.16,1.15,.6,4-.29,.9-.27,1.83,.22,2.1,1.09,.28,.88-.21,1.83-1.09,2.1Zm7.5-10.5c-2.04,0-3.69-1.65-3.69-3.69s1.65-3.69,3.69-3.69,3.69,1.65,3.69,3.69-1.65,3.69-3.69,3.69Z"/></g><g><path class="cls-1" d="M54.54,0c-.55,0-1,.45-1,1V3.43c0,.55,.45,1,1,1s1-.45,1-1V1c0-.55-.45-1-1-1Z"/><path class="cls-1" d="M61.56,1.33c-.45-.31-1.08-.2-1.4,.26l-1.45,2.1c-.31,.46-.2,1.08,.26,1.4,.17,.12,.37,.18,.57,.18,.32,0,.63-.15,.83-.44l1.45-2.1c.31-.46,.2-1.08-.26-1.4Z"/><path class="cls-1" d="M48.92,1.58c-.32-.46-.94-.57-1.4-.26-.45,.32-.57,.94-.26,1.4l1.45,2.1c.2,.28,.51,.43,.83,.43,.2,0,.4-.06,.57-.18,.45-.32,.57-.94,.26-1.4l-1.45-2.1Z"/></g></g><g><path class="cls-1" d="M171.05,42.68h7.09c1.08,0,2.11-.14,3.05-.38,.94-.24,1.83-.56,2.63-1.03,.8-.47,1.5-1.03,2.12-1.69,.61-.66,1.12-1.36,1.55-2.21,.42-.8,.75-1.69,.94-2.63,.24-.94,.33-1.93,.33-2.91v-11.08c0-1.03-.09-2.02-.33-2.96-.19-.94-.52-1.79-.94-2.63-.42-.8-.94-1.55-1.55-2.21-.61-.66-1.32-1.22-2.12-1.69-.8-.47-1.69-.8-2.63-1.03-.94-.23-1.97-.38-3.05-.38h-7.09c-.85,0-1.6,.33-2.17,.89-.56,.56-.89,1.32-.89,2.16v26.73c0,.85,.33,1.6,.89,2.16,.56,.56,1.32,.89,2.17,.89Zm3.76-16.58v-9.58c0-.14,.05-.28,.14-.33,.09-.09,.19-.14,.33-.14h2.54c.65,0,1.27,.1,1.78,.33,.52,.19,.94,.56,1.27,.99,.38,.47,.61,.98,.8,1.6,.19,.61,.28,1.27,.28,2.02v10.57c0,.75-.1,1.41-.28,2.02-.19,.61-.42,1.13-.8,1.6-.33,.47-.75,.8-1.27,.99-.51,.23-1.13,.33-1.78,.33h-2.54c-.14,0-.24-.05-.33-.09-.1-.09-.14-.23-.14-.38v-9.91Z"/><path class="cls-1" d="M198.29,42.68c.94,0,1.78-.38,2.39-.99,.61-.61,.99-1.5,.99-2.44v-6.67c0-.14,.05-.28,.14-.33,.1-.09,.19-.14,.33-.14h7.09c.1,0,.24,.05,.33,.14,.05,.05,.14,.19,.14,.33v6.67c0,.94,.38,1.83,.99,2.44,.61,.61,1.46,.99,2.4,.99s1.79-.38,2.44-.99c.61-.61,.99-1.5,.99-2.44V20.56c0-1.03-.14-2.02-.33-2.91-.24-.94-.56-1.79-.99-2.63-.42-.8-.94-1.5-1.6-2.16-.61-.61-1.32-1.17-2.16-1.6-.8-.47-1.69-.8-2.63-1.03-.99-.24-2.02-.38-3.15-.38s-2.12,.14-3.1,.38c-.94,.23-1.83,.56-2.68,1.03-.8,.42-1.51,.99-2.16,1.6-.61,.66-1.13,1.36-1.55,2.16-.47,.84-.75,1.69-.99,2.63-.24,.89-.33,1.88-.33,2.91v18.69c0,.94,.37,1.83,.99,2.44,.61,.61,1.5,.99,2.44,.99Zm3.38-19.97v-1.87c0-.75,.1-1.36,.28-1.97,.14-.56,.42-1.08,.75-1.55,.33-.42,.75-.75,1.22-.94,.52-.24,1.08-.33,1.74-.33,.7,0,1.27,.09,1.79,.33,.47,.19,.89,.52,1.22,.94,.33,.47,.61,.99,.75,1.55,.19,.61,.28,1.22,.28,1.97v4.79c0,.09-.09,.23-.14,.33-.09,.1-.23,.14-.33,.14h-7.09c-.14,0-.24-.05-.33-.14-.09-.09-.14-.23-.14-.33v-2.91Z"/><path class="cls-1" d="M237.89,30.38c.38-.09,.7-.23,1.08-.38,.33-.14,.66-.33,.94-.47,.84-.47,1.55-1.03,2.16-1.64,.65-.66,1.17-1.36,1.6-2.16,.42-.8,.75-1.69,.99-2.58,.19-.94,.33-1.93,.33-2.96v-6.9c0-.94-.38-1.79-.99-2.44-.65-.61-1.5-.98-2.44-.98s-1.78,.38-2.4,.98c-.61,.66-.99,1.5-.99,2.44v6.62c0,.75-.09,1.41-.28,1.97-.14,.61-.42,1.13-.75,1.55-.33,.42-.75,.75-1.22,.94-.52,.23-1.08,.33-1.79,.33-.65,0-1.22-.1-1.74-.33-.47-.19-.89-.52-1.22-.94-.33-.42-.61-.94-.75-1.55-.19-.56-.28-1.22-.28-1.97v-6.62c0-.94-.37-1.79-.99-2.44-.61-.61-1.46-.98-2.39-.98s-1.83,.38-2.44,.98c-.61,.66-.99,1.5-.99,2.44v6.9c0,1.03,.09,2.02,.33,2.96,.24,.89,.52,1.79,.99,2.58,.42,.8,.94,1.5,1.55,2.16,.65,.61,1.36,1.18,2.16,1.64,.33,.14,.65,.33,.99,.47,.33,.14,.7,.28,1.08,.38,.1,0,.19,.09,.24,.14,.05,.09,.1,.19,.1,.28v8.46c0,.94,.37,1.83,.98,2.44,.61,.61,1.46,.99,2.4,.99s1.83-.38,2.44-.99c.61-.61,.99-1.5,.99-2.44v-8.46c0-.09,.05-.19,.1-.28,.05-.05,.14-.14,.23-.14Z"/><path class="cls-1" d="M267.91,42.68c.94,0,1.78-.38,2.39-.99,.61-.61,.99-1.5,.99-2.44V20.74c0-.75,.1-1.36,.28-1.97,.14-.56,.42-1.08,.75-1.55,.33-.42,.75-.75,1.22-.94,.52-.24,1.08-.33,1.74-.33,.7,0,1.27,.09,1.79,.33,.47,.19,.89,.52,1.22,.94,.33,.47,.61,.99,.75,1.55,.19,.61,.28,1.22,.28,1.97v18.51c0,.94,.38,1.83,.99,2.44,.61,.61,1.46,.99,2.4,.99s1.79-.38,2.44-.99c.61-.61,.99-1.5,.99-2.44V20.46c0-1.03-.14-2.02-.33-2.91-.24-.94-.56-1.79-.99-2.63-.42-.8-.94-1.5-1.6-2.16-.61-.61-1.32-1.17-2.16-1.6,0,0-1.69-.8-2.63-1.03-.99-.24-2.02-.38-3.15-.38s-2.12,.14-3.1,.38c-.94,.23-1.83,.56-2.68,1.03-.8,.42-1.51,.99-2.16,1.6-.61,.66-1.13,1.36-1.55,2.16-.47,.84-.75,1.69-.99,2.63-.24,.89-.33,1.88-.33,2.91v18.79c0,.94,.37,1.83,.99,2.44,.61,.61,1.5,.99,2.44,.99Z"/><path class="cls-1" d="M186.97,52.59c-.89,0-1.69,.38-2.26,.94-.56,.56-.94,1.36-.94,2.25v14.8c0,.14-.1,.23-.24,.28-.1,0-.24-.05-.28-.14l-3.95-8.13-3.94-7.79c-.33-.66-.8-1.22-1.41-1.6-.61-.38-1.31-.61-2.07-.61-1.08,0-2.07,.42-2.77,1.13-.7,.7-1.13,1.69-1.13,2.77v25.79c0,.85,.38,1.64,.94,2.21,.56,.56,1.36,.94,2.21,.94,.89,0,1.69-.38,2.26-.94s.89-1.36,.89-2.21v-15.27c0-.14,.14-.24,.24-.24,.14-.05,.24,0,.33,.14l3.99,8.18,3.99,8.17c.33,.66,.8,1.17,1.41,1.55,.61,.38,1.31,.61,2.02,.61,1.08,0,2.06-.42,2.72-1.13,.7-.7,1.13-1.64,1.13-2.72v-25.79c0-.89-.33-1.69-.89-2.25-.61-.56-1.41-.94-2.26-.94Z"/><path class="cls-1" d="M199.65,52.59c-.94,0-1.83,.38-2.44,.98-.61,.66-.99,1.5-.99,2.44v25.97c0,.94,.37,1.83,.99,2.44,.61,.61,1.5,.99,2.44,.99s1.78-.38,2.39-.99c.61-.61,.99-1.5,.99-2.44v-25.97c0-.94-.37-1.79-.99-2.44-.61-.61-1.46-.98-2.39-.98Z"/><path class="cls-1" d="M223.8,85.04c.94-.19,1.83-.56,2.63-.99,.84-.47,1.55-1.03,2.16-1.64,.66-.66,1.17-1.36,1.6-2.16,.42-.8,.75-1.69,.99-2.58,.19-.94,.33-1.93,.33-2.96v-5.87c0-.84-.33-1.6-.89-2.16-.56-.56-1.31-.89-2.16-.89h-5.54c-.8,0-1.6,.33-2.12,.89-.56,.56-.89,1.32-.89,2.16s.33,1.6,.89,2.16c.52,.56,1.31,.89,2.12,.89h1.78v2.54c0,.75-.09,1.41-.28,1.97-.14,.61-.42,1.08-.75,1.55-.33,.42-.75,.75-1.22,.94-.52,.23-1.08,.33-1.79,.33-.65,0-1.22-.1-1.74-.33-.47-.19-.89-.52-1.22-.94-.33-.47-.61-.94-.75-1.55-.19-.56-.28-1.22-.28-1.97v-11.88c0-1.03,.56-2.02,1.27-2.68,.7-.7,1.69-1.13,2.72-1.13,.75,0,1.36,.19,1.97,.52,.56,.38,1.03,.85,1.46,1.36,.61,.8,1.55,1.22,2.49,1.31,.94,.09,1.88-.14,2.53-.66,.75-.56,1.13-1.31,1.17-2.16,.05-.85-.23-1.74-.8-2.49-.42-.52-.85-1.03-1.36-1.46-.51-.47-1.08-.85-1.69-1.18-.8-.47-1.69-.8-2.63-1.03-.99-.24-2.02-.38-3.15-.38s-2.12,.14-3.1,.38c-.94,.23-1.83,.56-2.68,1.03-.8,.42-1.51,.99-2.16,1.6-.61,.66-1.13,1.36-1.55,2.16-.47,.84-.75,1.69-.99,2.63-.24,.89-.33,1.88-.33,2.91v11.41c0,1.03,.09,2.02,.33,2.96,.24,.89,.52,1.79,.99,2.58,.42,.8,.94,1.5,1.55,2.16,.66,.61,1.36,1.18,2.16,1.64,.85,.42,1.74,.8,2.68,.99,.98,.23,2.02,.38,3.1,.38s2.16-.14,3.15-.38Z"/><path class="cls-1" d="M258.94,81.99v-25.97c0-.94-.37-1.79-1.03-2.44-.61-.61-1.46-.98-2.4-.98s-1.78,.38-2.39,.98c-.61,.66-.99,1.5-.99,2.44v8.64c0,.09-.1,.23-.14,.33-.1,.09-.24,.14-.33,.14h-6.76c-.14,0-.24-.05-.33-.14-.1-.1-.14-.24-.14-.33v-8.64c0-.94-.38-1.79-.99-2.44-.61-.61-1.46-.98-2.4-.98s-1.83,.38-2.44,.98c-.61,.66-.99,1.5-.99,2.44v25.97c0,.94,.38,1.83,.99,2.44,.61,.61,1.51,.99,2.44,.99s1.79-.38,2.4-.99c.61-.61,.99-1.5,.99-2.44v-10.33c0-.14,.05-.24,.14-.33,.09-.09,.19-.14,.33-.14h6.76c.1,0,.24,.05,.33,.14,.05,.09,.14,.19,.14,.33v10.33c0,.94,.37,1.83,.99,2.44,.61,.61,1.46,.99,2.39,.99s1.79-.38,2.4-.99c.66-.61,1.03-1.5,1.03-2.44Z"/><path class="cls-1" d="M287.07,55.64c0-.84-.33-1.6-.89-2.16-.56-.56-1.31-.89-2.16-.89h-15.22c-.85,0-1.6,.33-2.17,.89-.56,.56-.89,1.32-.89,2.16s.33,1.6,.89,2.16c.56,.56,1.32,.89,2.17,.89h3.76c.14,0,.23,.05,.33,.14,.1,.05,.14,.19,.14,.33v23.2c0,.85,.33,1.6,.89,2.16,.56,.56,1.32,.89,2.16,.89h.7c.85,0,1.6-.33,2.16-.89,.56-.56,.9-1.32,.9-2.16v-23.2c0-.14,.05-.28,.14-.33,.09-.09,.19-.14,.33-.14h3.71c.85,0,1.6-.33,2.16-.89,.56-.56,.89-1.32,.89-2.16Z"/><path class="cls-1" d="M187.49,100.63c-.42-.8-.94-1.55-1.55-2.21-.61-.66-1.32-1.22-2.12-1.69-.8-.47-1.69-.8-2.63-1.03-.94-.23-1.97-.38-3.05-.38h-7.09c-.85,0-1.6,.33-2.17,.89-.56,.56-.89,1.32-.89,2.16v27.06c0,.85,.33,1.6,.89,2.16,.56,.56,1.32,.89,2.17,.89h7.09c1.08,0,2.11-.14,3.05-.38,.94-.24,1.83-.56,2.63-1.03,.8-.47,1.5-1.03,2.12-1.69,.61-.66,1.12-1.36,1.55-2.21,.42-.8,.75-1.69,.94-2.63,.24-.94,.33-1.93,.33-2.91v-11.41c0-1.03-.09-2.02-.33-2.96-.19-.94-.52-1.79-.94-2.63Zm-5.54,11.27v5.45c0,.75-.1,1.41-.28,2.02-.19,.61-.42,1.13-.8,1.6-.33,.47-.75,.8-1.27,.99-.51,.23-1.13,.33-1.78,.33h-2.54c-.14,0-.24-.05-.33-.09-.1-.09-.14-.23-.14-.38v-19.82c0-.14,.05-.28,.14-.33,.09-.09,.19-.14,.33-.14h2.54c.65,0,1.27,.1,1.78,.33,.52,.19,.94,.56,1.27,.99,.38,.47,.61,.98,.8,1.6,.19,.61,.28,1.27,.28,2.02v5.45Z"/><path class="cls-1" d="M209.71,122.38h-7.56c-.14,0-.24-.05-.33-.1-.09-.09-.14-.23-.14-.38v-7.19c0-.14,.05-.24,.14-.33,.1-.09,.19-.14,.33-.14h5.49c.85,0,1.6-.33,2.16-.89,.56-.56,.89-1.32,.89-2.16s-.33-1.6-.89-2.12c-.56-.56-1.31-.89-2.16-.89h-5.49c-.14,0-.24-.05-.33-.14-.09-.1-.14-.24-.14-.33v-5.82c0-.14,.05-.28,.14-.33,.1-.09,.19-.14,.33-.14h7.47c.8,0,1.6-.33,2.11-.89,.56-.56,.89-1.32,.89-2.16s-.33-1.6-.89-2.16c-.52-.56-1.32-.89-2.11-.89h-11.7c-.85,0-1.6,.33-2.16,.89-.56,.56-.89,1.32-.89,2.16v27.06c0,.85,.33,1.6,.89,2.16,.56,.56,1.31,.89,2.16,.89h11.79c.85,0,1.65-.33,2.17-.89,.56-.56,.89-1.32,.89-2.16,0,0-.33-1.6-.89-2.16-.52-.52-1.32-.89-2.17-.89Z"/><path class="cls-1" d="M233.48,122.38h-7.33c-.14,0-.24-.05-.33-.1-.09-.09-.14-.23-.14-.38v-23.54c0-.84-.33-1.6-.89-2.16-.52-.56-1.31-.89-2.16-.89h-.7c-.85,0-1.6,.33-2.16,.89-.56,.56-.89,1.32-.89,2.16v27.06c0,.85,.33,1.6,.89,2.16,.56,.56,1.31,.89,2.16,.89h11.56c.85,0,1.6-.33,2.16-.89,.52-.56,.89-1.32,.89-2.16s-.37-1.6-.89-2.16c-.56-.52-1.31-.89-2.16-.89Z"/><path class="cls-1" d="M245.6,95.32c-.94,0-1.83,.38-2.44,.98-.61,.66-.99,1.5-.99,2.44v26.31c0,.94,.38,1.83,.99,2.44,.61,.61,1.51,.99,2.44,.99s1.79-.38,2.4-.99c.61-.61,.99-1.5,.99-2.44v-26.31c0-.94-.38-1.78-.99-2.44-.61-.61-1.46-.98-2.4-.98Z"/><path class="cls-1" d="M276.23,95.32c-.75,0-1.46,.28-1.97,.71-.56,.42-.99,1.03-1.22,1.74l-2.49,9.3-2.53,9.25c-.05,.19-.19,.23-.33,.23s-.28-.05-.33-.23l-2.44-9.25-2.44-9.21c-.19-.75-.66-1.36-1.22-1.83-.56-.42-1.31-.71-2.06-.71-1.13,0-2.07,.56-2.68,1.36-.61,.8-.89,1.88-.56,2.96l3.57,12.68,3.57,12.73c.28,1.03,.89,1.88,1.69,2.49,.8,.61,1.78,.94,2.87,.94s2.02-.33,2.82-.94c.8-.61,1.41-1.46,1.69-2.49l3.62-12.78,3.66-12.73c.28-1.08,.05-2.12-.56-2.91-.56-.8-1.55-1.31-2.63-1.31Z"/><path class="cls-1" d="M300.46,122.38h-7.56c-.14,0-.24-.05-.33-.1-.1-.09-.14-.23-.14-.38v-7.19c0-.14,.05-.24,.14-.33,.09-.09,.19-.14,.33-.14h5.5c.84,0,1.6-.33,2.16-.89,.56-.56,.89-1.32,.89-2.16s-.33-1.6-.89-2.12c-.56-.56-1.32-.89-2.16-.89h-5.5c-.14,0-.24-.05-.33-.14-.1-.1-.14-.24-.14-.33v-5.82c0-.14,.05-.28,.14-.33,.09-.09,.19-.14,.33-.14h7.47c.8,0,1.6-.33,2.11-.89,.56-.56,.89-1.32,.89-2.16s-.33-1.6-.89-2.16c-.52-.56-1.31-.89-2.11-.89h-11.69c-.85,0-1.6,.33-2.17,.89-.56,.56-.89,1.32-.89,2.16v27.06c0,.85,.33,1.6,.89,2.16,.56,.56,1.32,.89,2.17,.89h11.79c.85,0,1.64-.33,2.16-.89,.56-.56,.89-1.32,.89-2.16,0,0-.33-1.6-.89-2.16-.52-.52-1.31-.89-2.16-.89Z"/><path class="cls-1" d="M325.5,113.83l.05-.05h.05c.7-.42,1.36-.89,1.97-1.46,.56-.56,1.08-1.17,1.5-1.88,.47-.75,.85-1.55,1.08-2.44,.23-.85,.33-1.79,.33-2.77s-.1-1.93-.33-2.77c-.24-.89-.61-1.69-1.08-2.44-.42-.75-.99-1.41-1.64-1.97-.61-.61-1.32-1.08-2.12-1.5-.8-.38-1.65-.7-2.54-.89-.89-.23-1.83-.33-2.82-.33h-7.28c-.85,0-1.6,.33-2.17,.89-.56,.56-.89,1.32-.89,2.16v26.68c0,.94,.38,1.83,.99,2.44,.61,.61,1.51,.99,2.44,.99s1.79-.38,2.4-.99c.61-.61,.99-1.5,.99-2.44v-9.44c0-.14,.05-.23,.14-.33,.09-.1,.19-.14,.33-.14h.52c.19,0,.37,.05,.51,.14,.14,.09,.24,.19,.33,.38l2.72,5.45,2.77,5.5c.42,.85,1.13,1.41,1.97,1.69,.8,.28,1.74,.24,2.58-.19,.85-.42,1.46-1.13,1.74-1.97,.24-.8,.24-1.74-.19-2.58l-2.3-4.56-2.3-4.56c-.05-.14-.05-.23,0-.38,.05-.1,.09-.19,.23-.24Zm-2.12-6.95c-.19,.47-.47,.89-.85,1.18-.37,.33-.8,.61-1.31,.75-.47,.14-1.03,.23-1.6,.23h-2.72c-.14,0-.24-.05-.33-.14-.1-.05-.14-.19-.14-.33v-6.67c0-.14,.05-.28,.14-.33,.09-.09,.19-.14,.33-.14h2.72c.56,0,1.13,.09,1.6,.23,.52,.14,.94,.42,1.31,.75,.38,.28,.66,.7,.85,1.17,.19,.47,.28,1.03,.28,1.64s-.09,1.18-.28,1.64Z"/><path class="cls-1" d="M357.26,96.31c-.66-.61-1.51-.98-2.44-.98s-1.79,.38-2.4,.98c-.61,.66-.99,1.5-.99,2.44v6.95c0,.75-.1,1.41-.28,1.97-.14,.61-.42,1.13-.75,1.55-.33,.42-.76,.75-1.22,.94-.51,.23-1.08,.33-1.78,.33-.66,0-1.22-.1-1.74-.33-.47-.19-.9-.52-1.22-.94-.33-.42-.61-.94-.75-1.55-.19-.56-.28-1.22-.28-1.97v-6.95c0-.94-.38-1.78-.99-2.44-.61-.61-1.46-.98-2.4-.98s-1.83,.38-2.44,.98c-.61,.66-.99,1.5-.99,2.44v7.23c0,1.03,.1,2.02,.33,2.96,.23,.89,.51,1.79,.98,2.58,.42,.8,.94,1.5,1.55,2.16,.66,.61,1.36,1.18,2.16,1.64,.33,.14,.66,.33,.99,.47,.33,.14,.71,.28,1.08,.38,.09,0,.19,.09,.23,.14,.05,.09,.1,.19,.1,.28v8.46c0,.94,.38,1.83,.99,2.44,.61,.61,1.46,.99,2.4,.99s1.83-.38,2.44-.99c.61-.61,.99-1.5,.99-2.44v-8.46c0-.09,.05-.19,.09-.28,.05-.05,.14-.14,.24-.14,.38-.09,.7-.23,1.08-.38,.33-.14,.65-.33,.94-.47,.85-.47,1.55-1.03,2.16-1.64,.66-.66,1.17-1.36,1.6-2.16,.42-.8,.75-1.69,.99-2.58,.19-.94,.33-1.93,.33-2.96v-7.23c0-.94-.38-1.78-.99-2.44Z"/><g><path class="cls-1" d="M132.82,39.96c0,.88,.24,1.61,.72,2.17,.49,.58,1.14,.87,1.93,.87h19.5c.79,0,1.44-.29,1.93-.87,.47-.56,.72-1.29,.72-2.17V12.58c0-.88-.24-1.61-.72-2.17-.49-.58-1.14-.87-1.93-.87h-19.5c-.79,0-1.44,.29-1.92,.87-.48,.56-.72,1.29-.72,2.17v27.37Zm16.48-13.69c0-1.6-1.3-2.91-2.91-2.91h-8.57s0-7.53,0-7.53c0-.56,.22-.61,.46-.61h14.14v22.11h-14.14c-.24,0-.46-.05-.46-.61v-7.54h8.57c1.6,0,2.91-1.3,2.91-2.91Z"/><path class="cls-1" d="M152.25,69.13c-.26-.29-.66-.72-1.23-1.3-.62-.58-1.26-.58-1.9,0-.88,.77-.92,1.57-.1,2.39,.09,.07,.2,.2,.35,.4,.06,.07,.12,.13,.18,.18,.05,.05,.1,.11,.14,.18,.71,1.06,1.5,1.18,2.39,.36,.41-.39,.62-.74,.64-1.07,.02-.33-.14-.71-.48-1.14Z"/><path class="cls-1" d="M133.15,73.1c.6-.42,1.36-1.11,2.18-1.97v12.58c0,2.08,1.25,2.51,2.31,2.51s2.28-.44,2.28-2.51v-18.51c1.12-1.77,2.03-3.51,2.72-5.19h4.11c-1.4,3.82-3.27,7.03-5.56,9.54-1.27,1.21-1.35,2.5-.25,3.75,.5,.56,1.02,.9,1.56,.85,.51-.03,1.03-.32,1.57-.88,.13-.14,.26-.28,.39-.42,.89,1.77,1.88,3.41,2.96,4.89-1.4,1.19-3.02,2.25-4.82,3.15-1.01,.41-1.62,.89-1.85,1.46-.29,.63-.13,1.42,.48,2.32,.42,.64,.91,1.02,1.42,1.1,.5,.12,1.07,.02,1.76-.31,2.24-1.05,4.32-2.45,6.19-4.17,1.84,1.72,3.9,3.14,6.13,4.21,1.35,.61,2.48,.3,3.27-.9,.63-.95,.81-1.77,.52-2.42-.26-.61-.91-1.11-1.96-1.5-1.77-.82-3.36-1.8-4.73-2.91,2.44-3.22,4.28-7.17,5.46-11.76,.24-1.12,.18-1.97-.17-2.63-.37-.63-1-.94-1.87-.94h-6.48c.05-.12,.09-.25,.14-.39,.08-.15,.13-.27,.14-.32,.19-.46,.2-.89,.03-1.27-.08-.18-.19-.33-.32-.45h7.68c1.39,0,2.15-.85,2.15-2.41s-.76-2.37-2.15-2.37h-14.47c.05-.41,.09-.79,.1-1.14,.05-1.22-.9-2.26-2.12-2.31-.59-.03-1.15,.16-1.58,.55-.44,.4-.7,.96-.73,1.57-.02,.39-.07,.82-.17,1.33h-5.89c-1.38,0-2.15,.84-2.15,2.37s.76,2.41,2.15,2.41h4.19c-2.13,4.25-5.54,8.33-7.17,9.46-1,.7-1.24,2.09-.54,3.09,.68,.96,2.13,1.22,3.09,.54Zm14.04-3.89c.38-.57,.87-1.4,1.51-2.53h5.91c-.96,2.99-2.33,5.64-4.08,7.88-1.38-1.63-2.5-3.43-3.34-5.36Z"/><path class="cls-1" d="M136.26,103.86c-.51-.5-1.07-1.02-1.68-1.56-.61-.48-1.58-.84-2.75,.16-.64,.54-.97,1.14-.97,1.78,0,.63,.31,1.24,.92,1.8,.74,.71,1.37,1.4,1.87,2.04,.47,.65,.99,.98,1.56,.99h.01c.5,0,1.04-.26,1.68-.8,1.45-1.29,1.03-2.51,.43-3.29-.06-.08-.14-.17-.24-.26-.38-.4-.66-.7-.84-.87Z"/><path class="cls-1" d="M158.29,123.64c-4.77,.29-9.22,.34-13.24,.15-3.39-.19-5.72-1.34-6.96-3.44v-7.24c0-.69-.2-1.25-.58-1.68-.4-.44-.92-.66-1.56-.66h-3.9c-1.43,0-2.21,.86-2.21,2.41s.79,2.41,2.21,2.41h1.04c.24,0,.43,.04,.43,.52v4.46c-1.02,.88-1.9,1.58-2.62,2.1-1.2,.89-1.51,2.15-.89,3.63,.39,.95,.9,1.49,1.53,1.63,.65,.14,1.35-.16,2.14-.91,.57-.54,1.36-1.31,2.37-2.3,.99,1.28,2.2,2.24,3.6,2.85,1.39,.61,3.19,.98,5.34,1.11,1.72,.07,3.59,.1,5.59,.1,2.33,0,4.85-.05,7.53-.14,.67-.03,1.19-.21,1.54-.55,.34-.32,.6-.82,.8-1.51,.3-1.09,.28-1.85-.07-2.34-.36-.5-1.05-.7-2.08-.62Z"/><path class="cls-1" d="M154.9,107.48c.9,0,1.41-.56,1.41-1.52v-.5c.05,.06,.1,.11,.15,.16,.62,.51,1.16,.75,1.64,.72,.56,0,1.1-.31,1.59-.91,.61-.74,.84-1.45,.68-2.1-.13-.62-.59-1.19-1.35-1.72-1.47-1.29-2.65-2.86-3.51-4.65-.25-.58-.62-1.05-1.11-1.4-.5-.35-1.05-.53-1.64-.53h-6.01c-.77,0-1.21,.47-1.21,1.3v.67l-.32-.1c-.69-.2-1.34-.16-1.93,.11-.59,.27-1.04,.73-1.31,1.33-.72,1.36-1.58,2.62-2.54,3.73-.68,.66-1.01,1.33-1,1.97,.01,.58,.31,1.14,.87,1.65,.96,.9,2.05,.86,3.07-.13l.11-.12c.09,.5,.3,.93,.62,1.29,.46,.51,1.07,.77,1.8,.77h1.96v2.14h-4.97c-1.3,0-2.01,.78-2.01,2.19s.71,2.23,2.01,2.23h4.41c-.63,1.6-1.84,2.96-3.57,4.03-.93,.45-1.6,1-1.99,1.61-.51,.78-.46,1.6,.15,2.37,0,0,0,0,0,0,.34,.42,.88,.82,1.68,.82,.46,0,1.01-.13,1.66-.47,2.39-1.33,4.2-2.98,5.38-4.93,1.31,2.3,3.14,4.01,5.48,5.1,1.92,.74,2.9-.04,3.39-.82,.47-.75,.6-1.44,.39-2.06-.27-.77-1.04-1.37-2.31-1.81-1.74-.86-3.07-2.15-3.97-3.85h4.37c1.3,0,2.01-.79,2.01-2.23s-.71-2.19-2.01-2.19h-5.53v-2.14h3.43Zm-.81-4.46h-9.7c.76-1.08,1.46-2.26,2.1-3.51h5.44c.62,1.27,1.35,2.45,2.16,3.51Z"/><path class="cls-1" d="M139.95,95.31c-.79-.88-2.15-.95-3.03-.16l-.39,.35-.38-.35c-.88-.79-2.24-.73-3.03,.16-.79,.88-.72,2.23,.16,3.03l3.26,2.93,3.26-2.93c.88-.79,.95-2.15,.16-3.03Z"/></g></g></svg>