<?xml version="1.0" encoding="UTF-8"?><svg id="Layer_1" xmlns="http://www.w3.org/2000/svg" viewBox="0 0 208.51 52.49"><defs><style>.cls-1{fill:#fff;}.cls-2{fill:#ffb800;}.cls-3{fill:#ffb700;}</style></defs><g><path class="cls-3" d="M87.48,25.11c-.91,2.18-2.11,4.2-3.53,5.9,.77,4.68,1.82,7.87,2.59,7.9,.36,0,.6-1.34,.65-4.22,.46,.46,1.15,.96,1.73,1.2-.34,4.01-.98,5.11-2.66,5.11-1.8,0-3.14-3.34-4.03-8.09-.58,.55-1.15,1.01-1.75,1.46-.24-.31-.82-.89-1.27-1.27h-3.07c.7,1.06,1.56,2.47,1.99,3.31l-1.46,.74c-.41-.91-1.3-2.42-2.02-3.55l1.1-.5h-3.89v-5.38h7.78v4.68c.77-.55,1.51-1.2,2.18-1.9-.31-2.23-.55-4.71-.7-7.15h-10.71v2.95c0,4.08-.34,10.54-2.38,14.83-.38-.36-1.32-.98-1.78-1.2,1.92-4.08,2.09-9.82,2.09-13.63v-4.8h12.67c-.05-.79-.05-1.63-.07-2.42h2.09c0,.82,0,1.61,.02,2.42h2.59c-.6-.55-1.49-1.25-2.18-1.78l1.32-.94c.82,.58,1.92,1.37,2.5,1.87l-1.03,.84h1.9v1.85h-4.99c.1,1.7,.24,3.38,.43,4.95,.77-1.15,1.42-2.4,1.92-3.72l1.97,.53Zm-17.88,14.4c.62-1.25,1.1-3.26,1.34-4.85l1.46,.46c-.24,1.63-.67,3.77-1.34,5.14l-1.46-.74Zm10.46-13.18h-8.64v-1.56h8.64v1.56Zm-2.67,12.89c.6,0,.72-.34,.77-2.67,.38,.29,1.1,.58,1.58,.7-.17,2.81-.65,3.53-2.16,3.53h-2.47c-1.82,0-2.28-.5-2.28-2.18v-4.25h1.8v4.25c0,.53,.1,.62,.74,.62h2.02Zm.48-9.96h-4.22v2.3h4.22v-2.3Zm2.76,5.18c.77,1.58,1.7,3.7,2.14,4.94l-1.61,.7c-.43-1.3-1.3-3.46-2.06-5.09l1.54-.55Z"/><path class="cls-3" d="M97.34,24.87h-6.48v-1.8h6.48v1.8Zm-.62,14.88h-3.46v1.06h-1.66v-8.07h5.11v7.01Zm-5.04-13.46h5.06v1.75h-5.06v-1.75Zm0,3.19h5.06v1.75h-5.06v-1.75Zm2.16-6.46c-.17-.84-.7-2.23-1.22-3.24l1.61-.6c.53,.98,1.13,2.3,1.32,3.17l-1.7,.67Zm-.58,11.47v3.5h1.78v-3.5h-1.78Zm13.06-3.38c-.55,.89-1.15,1.7-1.87,2.5v5.16c0,.96-.19,1.51-.82,1.85-.62,.31-1.61,.36-3.02,.36-.07-.5-.36-1.37-.65-1.85,.98,.05,1.97,.02,2.23,.02,.31,0,.41-.1,.41-.41v-3.22c-1.46,1.34-3.05,2.5-4.63,3.41-.17-.41-.65-1.32-.94-1.75,1.9-.96,3.84-2.35,5.45-3.94-1.78,.19-3.5,.38-4.97,.53l-.17-1.75,.89-.07v-10.22h1.78c.26-.89,.53-1.9,.65-2.69l2.18,.36c-.31,.77-.65,1.61-.94,2.33h2.54v9.1l.22-.34,1.66,.62Zm-3.72-7.63h-2.54v1.68h2.54v-1.68Zm0,3.29h-2.54v1.66h2.54v-1.66Zm-2.54,4.99l2.54-.22v-1.51h-2.54v1.73Zm12.43-5.54h-1.25v12.31c0,1.13-.24,1.68-.91,2.02-.7,.34-1.75,.41-3.31,.41-.12-.53-.46-1.44-.72-1.99,1.08,.05,2.14,.05,2.47,.05,.34-.02,.46-.12,.46-.5v-12.29h-4.18v-2.04h4.18v-4.94h2.02v4.94h1.25v2.04Zm-5.42,7.78c-.22-1.42-.91-3.77-1.68-5.59l1.66-.46c.82,1.73,1.56,4.06,1.8,5.47l-1.78,.58Z"/><path class="cls-3" d="M117.82,25.56c-.67,.72-1.37,1.39-2.04,1.97-.29-.46-.96-1.37-1.42-1.8,2.18-1.63,4.32-4.15,5.64-6.75l1.97,.67c-.55,1.1-1.27,2.21-2.02,3.26v9.89h-2.14v-7.25Zm-3.17,13.58c.91-1.39,1.8-3.55,2.35-5.16l1.97,.82c-.6,1.63-1.42,3.86-2.23,5.35l-2.09-1.01Zm14.04-.53c1.22,0,1.44-.34,1.58-2.71,.5,.38,1.44,.72,2.04,.82-.29,3.17-.96,3.94-3.46,3.94h-5.23c-3.07,0-3.86-.62-3.86-2.81v-3.91h2.23v3.86c0,.7,.29,.82,1.78,.82h4.92Zm-3.7-15.55c-.74,1.18-1.56,2.23-2.4,3.07-.36-.41-1.18-1.13-1.66-1.42,1.58-1.37,2.9-3.46,3.65-5.64l2.04,.5c-.19,.55-.38,1.06-.62,1.58h8.28l.34-.07,1.56,.38c-.6,1.42-1.32,3.07-1.87,4.1l-1.92-.41c.29-.55,.65-1.34,.96-2.11h-8.35Zm1.58,3.22c-.79,1.85-2.09,3.74-3.36,4.97-.36-.38-1.18-1.03-1.66-1.32,1.25-1.08,2.35-2.64,2.98-4.22l2.04,.58Zm.07,10.87c-.55-1.15-1.97-2.9-3.22-4.15l1.73-.94c1.25,1.15,2.71,2.83,3.36,4.01l-1.87,1.08Zm3.58-6.67c0,1.01-.19,1.56-.91,1.87-.7,.31-1.75,.34-3.19,.34-.12-.58-.43-1.42-.72-1.94,1.01,.02,2.02,.02,2.3,.02s.38-.07,.38-.34v-6.65h2.14v6.7Zm2.78-4.82c1.18,1.42,2.4,3.31,2.93,4.61l-1.87,.98c-.53-1.27-1.75-3.29-2.86-4.75l1.8-.84Zm.6,7.87c1.1,1.7,2.21,3.91,2.62,5.42l-2.14,.84c-.34-1.46-1.39-3.77-2.45-5.5l1.97-.77Z"/><path class="cls-3" d="M159.82,22.78s0,.77-.02,1.06c-.34,10.83-.62,14.54-1.58,15.75-.6,.79-1.18,1.01-2.09,1.13-.84,.1-2.26,.07-3.62,0-.05-.6-.31-1.54-.72-2.16,1.54,.12,2.93,.14,3.53,.14,.48,0,.74-.07,1.01-.41,.77-.79,1.08-4.42,1.39-13.46h-5.67c-.67,1.54-1.42,2.93-2.18,4.03-.36-.34-1.2-.94-1.75-1.25v11.02h-6.5v1.82h-2.04V22.9h2.69c.34-1.15,.7-2.74,.84-3.89l2.42,.41c-.41,1.2-.86,2.47-1.25,3.48h3.84v4.54c1.58-2.06,2.86-5.26,3.58-8.42l2.16,.5c-.29,1.1-.6,2.21-.98,3.26h6.96Zm-18.22,2.06v4.56h4.46v-4.56h-4.46Zm4.46,11.81v-5.3h-4.46v5.3h4.46Zm7.99-1.87c-.67-1.46-2.23-3.82-3.5-5.54l1.75-.98c1.27,1.66,2.9,3.94,3.62,5.35l-1.87,1.18Z"/><path class="cls-3" d="M181.78,28.8c-1.3,3.24-3.38,5.74-6.02,7.63,2.47,1.18,5.42,1.94,8.81,2.35-.48,.53-1.1,1.51-1.39,2.16-3.82-.55-7.01-1.56-9.67-3.1-2.95,1.58-6.36,2.59-9.96,3.24-.17-.6-.77-1.63-1.2-2.14,3.31-.48,6.38-1.27,9.05-2.5-2.04-1.58-3.7-3.58-4.94-5.98l.84-.31h-2.78v-2.18h7.78v-3.29h-8.88v-2.21h8.88v-3.41h2.3v3.41h8.95v2.21h-8.95v3.29h5.23l.41-.1,1.56,.91Zm-13.01,1.37c1.13,2.04,2.76,3.74,4.82,5.09,2.06-1.32,3.77-2.98,4.92-5.09h-9.75Z"/><path class="cls-3" d="M193.97,31.35l-2.42,.77v6.41c0,1.13-.24,1.7-.86,2.06-.65,.34-1.61,.43-3.12,.41-.07-.53-.34-1.49-.6-2.06,.94,.02,1.85,.02,2.11,.02,.29,0,.41-.1,.41-.43v-5.76l-2.74,.84-.5-2.16c.89-.24,2.02-.55,3.24-.91v-4.73h-2.9v-2.06h2.9v-4.63h2.06v4.63h2.3v2.06h-2.3v4.15l2.14-.65,.29,2.04Zm11.59-2.69v2.33h2.81v2.04h-2.81v5.57c0,1.2-.26,1.8-1.03,2.14-.79,.34-1.99,.36-3.72,.36-.1-.62-.38-1.54-.67-2.14,1.22,.07,2.47,.07,2.81,.05,.38-.02,.48-.12,.48-.46v-5.52h-8.95v-2.04h8.95v-2.33h-9.22v-2.04h6.12v-2.59h-4.99v-2.04h4.99v-2.83h2.14v2.83h4.95v2.04h-4.95v2.59h6.05v2.04h-2.95Zm-7.78,4.8c1.01,1.22,2.18,2.93,2.69,4.08l-1.9,1.13c-.41-1.15-1.54-2.9-2.57-4.2l1.78-1.01Z"/></g><g><g><path class="cls-1" d="M37.66,43.73l-.63,.02c-1.54,.04-3.06,.23-4.55,.42-1.4,.17-2.73,.34-3.98,.37-.29,0-.57,.01-.86,.01-13.38,0-23.47-8.66-23.47-20.15C4.17,13.24,16.02,4.17,30.58,4.17s26.42,9.08,26.42,20.23c0,5.18-2.56,9.1-4.71,11.46l-2.35,2.59,3.39,8.43-15.68-3.15Z"/><path class="cls-2" d="M37.3,47.91h-.16c-1.34,.04-2.71,.21-4.15,.39-1.44,.18-2.93,.36-4.38,.4-.32,0-.64,.01-.96,.01C11.88,48.71,0,38.26,0,24.4S13.72,0,30.58,0s30.58,10.95,30.58,24.4c0,5.15-2,10.08-5.79,14.26l-.6,.66,5.3,13.17-22.78-4.58Zm16.04-1.02l-3.39-8.43,2.35-2.59c2.15-2.37,4.71-6.28,4.71-11.46,0-11.16-11.85-20.23-26.42-20.23S4.17,13.24,4.17,24.4c0,11.49,10.09,20.15,23.47,20.15,.28,0,.57,0,.86-.01,1.25-.03,2.58-.2,3.98-.37,1.49-.18,3.01-.37,4.55-.42l.63-.02,15.68,3.15Z"/></g><g><path class="cls-2" d="M8.95,15.76h7.73c.38,0,.64,.08,.79,.23s.22,.42,.22,.79v1.2c0,.37-.07,.63-.22,.79s-.41,.23-.79,.23h-2.11v6.55c0,.32-.06,.55-.22,.7s-.41,.22-.78,.23h-1.28c-.37,0-.63-.06-.79-.22s-.24-.39-.25-.71v-6.55h-2.31c-.38,0-.64-.08-.79-.23s-.22-.42-.22-.79v-1.1c0-.43,.07-.72,.22-.88s.41-.23,.79-.23Z"/><path class="cls-2" d="M21.36,16.81v1.36c.25-.03,.52-.05,.8-.05h.42c1.28,.02,2.27,.31,2.95,.88s1.03,1.57,1.03,3.01v3.55c0,.32-.09,.56-.25,.71s-.42,.22-.79,.22h-1.15c-.37,0-.63-.08-.78-.23s-.22-.38-.22-.7v-3.35c0-.45-.07-.77-.22-.96-.16-.2-.4-.29-.73-.29h-.12c-.33,0-.57,.1-.71,.29-.16,.2-.23,.52-.23,.96v3.35c0,.32-.06,.55-.22,.7s-.41,.22-.78,.23h-1.15c-.37,0-.63-.06-.79-.22s-.24-.39-.25-.71v-8.75c0-.38,.06-.63,.22-.78s.41-.22,.78-.23h1.05c.43,0,.72,.06,.88,.22s.24,.42,.25,.79Z"/><path class="cls-2" d="M35.43,22.01v3.54c0,.32-.09,.56-.25,.71s-.42,.22-.79,.22h-1.15c-.24,0-.44-.04-.59-.11-.37,.05-.77,.07-1.21,.08h-.42c-1.28-.02-2.27-.22-2.95-.61s-1.03-1.08-1.03-2.07v-.4c0-1,.34-1.7,1.03-2.09s1.67-.59,2.95-.59h.42c.24,0,.47,0,.69,.02-.03-.09-.1-.19-.2-.32s-.32-.19-.64-.19h-3.3c-.34,0-.58-.09-.73-.25s-.22-.42-.22-.79v-.04c0-.37,.08-.63,.23-.78s.39-.22,.71-.22h3.46c1.28,.02,2.27,.31,2.95,.88s1.03,1.57,1.03,3.01Zm-5.2,1.5v.12c0,.3,.08,.53,.23,.66s.39,.21,.72,.21h.12c.33,0,.57-.07,.72-.21s.23-.36,.23-.66v-.12c0-.31-.07-.54-.22-.68-.16-.13-.4-.2-.73-.2h-.12c-.33,0-.57,.07-.72,.21s-.23,.36-.23,.67Z"/><path class="cls-2" d="M39.13,25.56c0,.32-.06,.55-.22,.7s-.41,.22-.78,.23h-1.15c-.37,0-.63-.06-.79-.22s-.24-.39-.25-.71v-6.46c0-.38,.06-.63,.22-.78s.41-.22,.78-.23h1.05c.34,0,.59,.04,.76,.13,.12-.02,.24-.04,.36-.06,.25-.03,.52-.05,.8-.05h.42c1.28,.02,2.27,.31,2.95,.88s1.03,1.57,1.03,3.01v3.55c0,.32-.09,.56-.25,.71s-.42,.22-.79,.22h-1.15c-.37,0-.63-.08-.78-.23s-.22-.38-.22-.7v-3.35c0-.45-.08-.77-.23-.96s-.39-.29-.72-.29h-.12c-.33,0-.56,.09-.7,.26s-.22,.41-.24,.71v3.63Z"/><path class="cls-2" d="M52.56,20.37l-2.17,1.92,2.17,1.92c.44,.41,.66,.86,.66,1.35,0,.32-.09,.56-.25,.71s-.42,.22-.79,.22h-1.25c-.35,0-.61-.08-.77-.21s-.34-.29-.54-.47l-1.59-1.41v1.16c0,.32-.06,.55-.22,.7s-.41,.22-.78,.23h-1.15c-.37,0-.63-.06-.79-.22s-.24-.39-.25-.71v-8.75c0-.38,.06-.63,.22-.78s.41-.22,.78-.23h1.05c.43,0,.72,.06,.88,.22s.24,.42,.25,.79v3.38l1.59-1.41c.2-.18,.38-.34,.54-.47s.42-.2,.77-.21h1.25c.37,0,.63,.06,.79,.22s.24,.39,.25,.71c0,.49-.22,.94-.66,1.35Z"/><path class="cls-2" d="M16.92,29.2c-.2-.38-.21-.64-.05-.79s.46-.22,.88-.22h1.21c.37,0,.63,.08,.78,.23s.32,.4,.5,.78l1.46,2.88,1.46-2.88c.18-.38,.35-.63,.5-.78s.41-.22,.78-.23h1.21c.43,0,.72,.06,.88,.22s.14,.42-.05,.79l-3.12,6.13v2.62c0,.32-.06,.55-.22,.7s-.41,.22-.78,.23h-1.28c-.37,0-.63-.06-.79-.22s-.24-.39-.25-.71v-2.61l-3.13-6.14Z"/><path class="cls-2" d="M35.43,34.97c0,1.44-.35,2.44-1.04,3.01s-1.68,.86-2.94,.88h-.42c-1.28-.02-2.27-.31-2.95-.88s-1.03-1.57-1.03-3.01v-.56c0-1.44,.34-2.44,1.03-3.01s1.67-.86,2.95-.88h.42c1.28,.02,2.27,.31,2.95,.88s1.03,1.57,1.03,3.01v.56Zm-5.2-.2c0,.45,.08,.77,.23,.96s.39,.29,.72,.29h.12c.33,0,.57-.1,.72-.29s.23-.52,.23-.96v-.16c0-.45-.08-.77-.23-.96s-.39-.29-.72-.29h-.12c-.33,0-.57,.1-.72,.29s-.23,.52-.23,.96v.16Z"/><path class="cls-2" d="M41.12,31.42c0-.32,.06-.55,.22-.7s.41-.22,.78-.23h1.15c.37,0,.63,.06,.79,.22s.24,.39,.25,.71v6.46c0,.38-.06,.63-.22,.78s-.41,.22-.78,.23h-1.05c-.34,0-.59-.04-.76-.13-.12,.02-.24,.04-.36,.06-.25,.03-.52,.05-.8,.05h-.42c-1.28-.02-2.27-.31-2.95-.88s-1.03-1.57-1.03-3.01v-3.55c0-.32,.09-.56,.25-.71s.42-.22,.79-.22h1.15c.37,0,.63,.08,.78,.23s.22,.38,.22,.7v3.35c0,.45,.08,.77,.23,.96s.39,.29,.72,.29h.12c.33,0,.56-.09,.7-.26s.22-.41,.24-.71v-3.63Z"/></g></g></svg>