<?xml version="1.0" encoding="UTF-8"?><svg id="Layer_1" xmlns="http://www.w3.org/2000/svg" viewBox="0 0 180.24 44.04"><defs><style>.cls-1{fill:#ffb700;}</style></defs><path class="cls-1" d="M0,5.22c0-1.16,.42-2.2,1.26-3.12,.84-.84,1.88-1.26,3.12-1.26s2.22,.42,3.06,1.26c.84,.92,1.26,1.96,1.26,3.12V38.82c0,1.24-.42,2.28-1.26,3.12-.84,.84-1.86,1.26-3.06,1.26s-2.28-.42-3.12-1.26c-.84-.84-1.26-1.88-1.26-3.12V5.22Z"/><path class="cls-1" d="M33.96,4.92c0-.56,.11-1.09,.33-1.59,.22-.5,.51-.93,.87-1.29,.8-.8,1.76-1.2,2.88-1.2,.56,0,1.08,.11,1.56,.33,.48,.22,.92,.51,1.32,.87,.76,.76,1.14,1.72,1.14,2.88V38.28c0,1.36-.48,2.52-1.44,3.48-.88,.96-2.03,1.44-3.47,1.44-.88,0-1.74-.26-2.57-.78-.8-.48-1.4-1.14-1.79-1.98l-5.08-10.44-5.08-10.44c-.12-.16-.26-.22-.42-.18-.2,0-.3,.1-.3,.3v19.5c0,1.12-.38,2.06-1.15,2.82-.36,.36-.8,.65-1.3,.87-.5,.22-1.04,.33-1.6,.33-1.09,0-2.04-.4-2.84-1.2-.81-.8-1.21-1.74-1.21-2.82V5.82c0-1.4,.48-2.58,1.45-3.54s2.16-1.44,3.57-1.44c.93,0,1.81,.26,2.66,.78,.76,.48,1.35,1.16,1.79,2.04l5.01,10.38,5.02,10.38c.04,.12,.16,.18,.36,.18,.2-.08,.3-.2,.3-.36V4.92Z"/><path class="cls-1" d="M68.28,3.96c.32-.92,.84-1.66,1.56-2.22,.72-.6,1.56-.9,2.52-.9,.68,0,1.32,.15,1.92,.45s1.08,.71,1.44,1.23c.84,1.08,1.08,2.32,.72,3.72l-4.68,16.26-4.62,16.32c-.36,1.28-1.08,2.34-2.16,3.18-1.04,.8-2.24,1.2-3.6,1.2s-2.62-.4-3.66-1.2c-1.08-.84-1.8-1.9-2.16-3.18l-4.56-16.26-4.56-16.2c-.2-.68-.23-1.35-.09-2.01,.14-.66,.41-1.25,.81-1.77,.4-.52,.89-.94,1.47-1.26,.58-.32,1.23-.48,1.95-.48,.96,0,1.84,.3,2.64,.9,.36,.32,.68,.67,.96,1.05,.28,.38,.48,.81,.6,1.29l3.12,11.76,3.12,11.82c.04,.2,.18,.3,.42,.3s.38-.1,.42-.3l3.24-11.82,3.18-11.88Z"/><path class="cls-1" d="M105.84,6.6c.56,1.12,.98,2.24,1.26,3.36,.12,.56,.22,1.15,.3,1.77,.08,.62,.12,1.27,.12,1.95V30.36c0,.68-.04,1.33-.12,1.95-.08,.62-.18,1.23-.3,1.83-.32,1.2-.74,2.3-1.26,3.3-.56,1.04-1.24,1.96-2.04,2.76-.84,.84-1.76,1.54-2.76,2.1-.52,.28-1.06,.53-1.62,.75s-1.14,.39-1.74,.51c-.64,.16-1.29,.28-1.95,.36-.66,.08-1.35,.12-2.07,.12-1.28,0-2.6-.16-3.96-.48-.6-.12-1.18-.29-1.74-.51s-1.12-.47-1.68-.75c-.52-.32-1-.65-1.44-.99-.44-.34-.88-.71-1.32-1.11-.8-.88-1.46-1.8-1.98-2.76-.32-.52-.57-1.06-.75-1.62-.18-.56-.35-1.12-.51-1.68-.28-1.12-.42-2.38-.42-3.78V13.68c0-1.4,.14-2.64,.42-3.72,.16-.6,.33-1.17,.51-1.71,.18-.54,.43-1.09,.75-1.65,.52-.96,1.18-1.88,1.98-2.76,.44-.4,.88-.77,1.32-1.11,.44-.34,.92-.65,1.44-.93,1-.56,2.14-1,3.42-1.32,1.36-.32,2.68-.48,3.96-.48,.72,0,1.41,.04,2.07,.12,.66,.08,1.31,.2,1.95,.36,1.28,.32,2.4,.76,3.36,1.32,.56,.28,1.06,.59,1.5,.93,.44,.34,.86,.71,1.26,1.11,.8,.84,1.48,1.76,2.04,2.76Zm-17.28,7.44v15.96c0,.96,.12,1.8,.36,2.52,.08,.4,.21,.75,.39,1.05,.18,.3,.37,.61,.57,.93,.44,.56,.96,.96,1.56,1.2,.6,.28,1.34,.42,2.22,.42s1.68-.14,2.28-.42c.6-.24,1.12-.64,1.56-1.2,.2-.32,.39-.63,.57-.93,.18-.3,.31-.65,.39-1.05,.24-.72,.36-1.56,.36-2.52V14.04c0-.88-.12-1.72-.36-2.52-.16-.64-.48-1.3-.96-1.98-.44-.56-.96-.96-1.56-1.2-.6-.28-1.36-.42-2.28-.42s-1.62,.14-2.22,.42c-.6,.24-1.12,.64-1.56,1.2-.48,.68-.8,1.34-.96,1.98-.24,.8-.36,1.64-.36,2.52Z"/><path class="cls-1" d="M111.72,5.22c0-1.16,.42-2.2,1.26-3.12,.84-.84,1.88-1.26,3.12-1.26s2.22,.42,3.06,1.26c.84,.92,1.26,1.96,1.26,3.12V38.82c0,1.24-.42,2.28-1.26,3.12-.84,.84-1.86,1.26-3.06,1.26s-2.28-.42-3.12-1.26c-.84-.84-1.26-1.88-1.26-3.12V5.22Z"/><path class="cls-1" d="M148.8,25.68c1.2-.08,2.22,.34,3.06,1.26,.88,.8,1.32,1.82,1.32,3.06v.36c0,.68-.04,1.33-.12,1.95-.08,.62-.18,1.23-.3,1.83-.32,1.2-.74,2.3-1.26,3.3-.56,1.04-1.24,1.96-2.04,2.76-.84,.84-1.76,1.54-2.76,2.1-.52,.28-1.06,.53-1.62,.75s-1.14,.39-1.74,.51c-.64,.16-1.29,.28-1.95,.36-.66,.08-1.35,.12-2.07,.12-1.28,0-2.6-.16-3.96-.48-.6-.12-1.18-.29-1.74-.51s-1.12-.47-1.68-.75c-.52-.32-1-.65-1.44-.99-.44-.34-.88-.71-1.32-1.11-.8-.88-1.46-1.8-1.98-2.76-.32-.52-.57-1.06-.75-1.62-.18-.56-.35-1.12-.51-1.68-.28-1.12-.42-2.38-.42-3.78V13.68c0-1.4,.14-2.64,.42-3.72,.16-.6,.33-1.17,.51-1.71,.18-.54,.43-1.09,.75-1.65,.52-.96,1.18-1.88,1.98-2.76,.44-.4,.88-.77,1.32-1.11,.44-.34,.92-.65,1.44-.93,1-.56,2.14-1,3.42-1.32,1.36-.32,2.68-.48,3.96-.48,.72,0,1.41,.04,2.07,.12,.66,.08,1.31,.2,1.95,.36,1.28,.32,2.4,.76,3.36,1.32,.84,.44,1.56,.94,2.16,1.5,.32,.28,.62,.58,.9,.9,.28,.32,.56,.64,.84,.96,.76,1,1.1,2.06,1.02,3.18-.08,1.12-.58,2.04-1.5,2.76-.88,.68-1.96,.96-3.24,.84-.6-.08-1.18-.25-1.74-.51-.56-.26-1.04-.65-1.44-1.17-.6-.72-1.22-1.3-1.86-1.74-.8-.44-1.64-.66-2.52-.66-1.36,0-2.52,.48-3.48,1.44-.44,.44-.82,.95-1.14,1.53-.32,.58-.48,1.21-.48,1.89V30c0,.96,.12,1.8,.36,2.52,.08,.4,.21,.75,.39,1.05,.18,.3,.37,.61,.57,.93,.44,.56,.96,.96,1.56,1.2,.6,.28,1.34,.42,2.22,.42s1.68-.14,2.28-.42c.6-.24,1.12-.64,1.56-1.2,.2-.32,.39-.63,.57-.93,.18-.3,.31-.65,.39-1.05,.24-.72,.36-1.54,.36-2.46v-.06c0-1.12,.42-2.14,1.26-3.06,.84-.84,1.86-1.26,3.06-1.26Z"/><path class="cls-1" d="M166.08,34.86c0,.2,.06,.36,.18,.48,.16,.08,.3,.12,.42,.12h9.66c.56,0,1.08,.11,1.56,.33,.48,.22,.88,.49,1.2,.8,.2,.2,.37,.45,.51,.74,.14,.3,.25,.61,.33,.92,.12,.36,.22,.71,.3,1.07,0,1.07-.38,1.98-1.14,2.74-.68,.75-1.6,1.13-2.76,1.13h-15.06c-1.08,0-2-.38-2.76-1.14-.76-.76-1.14-1.68-1.14-2.76V4.74c0-1.08,.38-2,1.14-2.76,.76-.76,1.68-1.14,2.76-1.14h14.94c1.12,0,2.02,.38,2.7,1.13,.76,.75,1.14,1.67,1.14,2.74s-.38,1.98-1.14,2.74c-.68,.75-1.58,1.13-2.7,1.13h-9.54c-.16,0-.3,.06-.42,.18-.12,.08-.18,.22-.18,.42v7.49c0,.16,.06,.3,.18,.42,.12,.12,.26,.18,.42,.18h7.02c1.08,0,2,.38,2.76,1.14,.76,.68,1.14,1.58,1.14,2.7s-.38,2-1.14,2.76c-.76,.76-1.68,1.14-2.76,1.14h-7.02c-.16,0-.3,.06-.42,.18-.12,.12-.18,.26-.18,.42v9.23Z"/></svg>