<?xml version="1.0" encoding="UTF-8"?><svg id="Layer_1" xmlns="http://www.w3.org/2000/svg" viewBox="0 0 45.35 45.35"><defs><style>.cls-1{fill:#231f20;}</style></defs><rect class="cls-1" x="12.5" width="1.61" height="1.61"/><rect class="cls-1" x="12.5" y="4.69" width="1.61" height="1.61"/><path class="cls-1" d="M43.74,12.5v3.12h-3.08v-3.12h-1.61v1.56h-3.12v1.61h4.69v1.51h-7.76v-1.56h-1.56v-1.51h3.12v-1.61h-3.12v-1.51h1.56V6.25h-3.12v-1.51h1.56v-1.61h-1.56V0h-4.74V1.61h3.12V7.81h-1.51v-1.56h-1.56v-1.51h1.56v-1.61h-3.17v1.56h-1.51v-1.56h-1.56V1.61h1.56V0h-3.17V1.56h-1.51V0h-1.61V1.61h1.56V6.25h-1.56v4.69h-1.51v-1.56h-1.61v1.61h1.56v1.51h-1.56v1.61h1.61v-1.56h1.51v1.56h1.56v1.51h-1.56v1.56h-1.51v-1.56h-4.69v-1.51h1.56v-1.61H6.25v1.61h1.56v1.56h1.56v1.56h1.56v1.51h-3.12v1.56h-1.51v-1.56h-1.56v-1.56h-1.61v3.12H0v3.17H1.61v-1.56h1.51v1.56h1.56v3.08h-1.51v-1.56H0v1.61H3.12v3.08H1.61v-1.56H0v1.61H1.56v1.51H0v1.61H1.61v-1.56h1.51v1.56h1.61v-1.61h-1.56v-1.51h3.08v3.12h4.74v-1.61h-1.56v-1.51h1.56v-1.56h1.51v3.12h1.56v1.51h-1.56v1.61h3.12v3.12h1.61v-4.69h3.12v-1.56h1.51v7.81h1.56v1.51h-7.76v-1.56h-1.56v-3.12h-1.61v3.17h1.56v1.51h-1.56v1.61h1.56v3.12h1.61v-3.12h1.51v3.12h3.17v-1.56h1.56v-1.56h1.51v1.56h1.56v1.56h10.98v-1.56h1.51v1.56h1.61v-1.56h1.51v1.56h4.74v-1.61h-1.56v-1.51h1.56v-1.61h-1.56v-3.12h-1.61v3.17h1.56v1.51h-1.56v1.56h-1.51v-1.56h-1.56v-1.51h1.56v-3.17h-1.56v-6.25h-3.12v-1.51h9.37v-4.74h-3.17v1.56h-1.51v-1.56h-1.61v1.56h-1.56v1.56h-1.56v1.56h-1.51v-3.08h1.56v-1.56h1.56v-6.25h3.08v1.56h1.56v1.51h-1.56v1.61h1.61v-1.56h1.51v1.56h1.61v-3.17h-3.12v-1.51h1.56v-1.56h1.56v-4.74h-1.61ZM15.62,40.67v1.51h-1.51v-1.51h1.51Zm3.17,1.56h1.51v1.51h-1.51v-1.51Zm20.31-14.11v-1.51h1.51v1.51h-1.51Zm-4.74,3.12h-3.08v-1.51h3.08v1.51Zm-4.69,0h-1.51v-1.51h1.51v1.51Zm-3.12,0h-4.64v-1.51h4.64v1.51Zm-4.64-4.64h1.51v1.51h-1.51v-1.51Zm-1.61-6.3h-1.51v-1.51h1.51v1.51Zm-4.69,6.25h-1.51v-1.51h1.51v1.51Zm-1.56,1.56h-1.51v-1.51h1.51v1.51Zm1.61,3.17h1.51v1.51h-1.51v-1.51Zm-7.86-6.3h-1.51v-1.51h1.51v1.51Zm1.61-1.51h1.51v1.51h-1.51v-1.51Zm3.12-1.56h1.51v3.08h-1.51v-3.08Zm4.64-.05h-1.51v-4.64h1.56v-1.56h1.51v3.08h-1.56v1.61h1.56v1.51h-1.56Zm3.17-4.64h1.56v-3.12h1.56v-1.56h1.51v4.69h1.61v-1.56h1.51v3.08h-1.56v1.56h-3.08v-1.56h-3.12v-1.51Zm-1.56-14.06h1.51v1.51h-1.51v-1.51Zm1.56,3.12h1.51v1.51h-1.51v-1.51Zm1.56,1.56h1.56v-1.56h1.51v4.64h-1.51v-1.56h-1.56v-1.51Zm9.32,3.08h-1.51v-1.51h1.51v1.51Zm1.56,7.81h-1.51v-1.51h1.51v1.51Zm-6.25,4.69h-1.51v-1.51h3.08v1.51h-1.56Zm4.69-6.25h-1.51v-1.51h1.51v1.51Zm-1.51-4.64h1.51v1.51h-1.51v-1.51Zm-.05-3.17h-1.51v-1.51h1.51v1.51Zm-1.56,4.69h-1.51v-1.51h1.51v1.51Zm-1.51,14.11h1.51v1.51h-1.51v-1.51Zm1.56-.05v-1.56h-1.56v-1.51h3.12v-3.17h-1.56v-1.51h3.08v1.56h1.56v1.51h-1.56v1.61h1.56v1.51h-1.56v3.12h-1.51v-1.56h-1.56Zm6.2-7.81h-1.51v-1.51h1.51v1.51Zm-6.25-10.89v1.51h-1.51v-1.51h1.51Zm-10.89-.05v-3.08h1.51v4.69h1.61v-1.56h1.51v1.56h1.56v1.51h-1.56v1.56h-1.51v-1.56h-3.12v-3.12Zm-6.25,10.98v-1.56h3.08v1.51h-1.56v1.56h-3.08v-1.51h1.56Zm-6.25,7.76v-1.51h1.51v1.51h-1.51Zm4.64,0h-1.51v-3.08h1.51v1.56h1.56v1.51h-1.56Zm9.37,3.12h-1.51v-1.51h1.56v-1.61h-1.61v1.56h-3.08v-1.51h1.56v-1.56h1.56v-3.12h4.69v-1.61h-1.56v-1.51h3.08v3.12h1.56v3.08h-1.51v-1.56h-1.61v1.56h-1.51v-1.56h-1.61v1.61h1.56v1.56h1.56v1.51h-1.56v1.56h-1.56Zm4.74,6.25v-1.51h3.12v-1.61h-3.12v-1.51h3.12v-1.56h1.51v1.56h1.61v-1.56h1.51v3.08h-3.12v1.61h3.12v4.64h-3.08v-1.51h1.56v-1.61h-4.74v1.56h-1.51v-1.56Zm3.12,6.25h-1.56v-1.56h-1.56v-1.51h3.08v1.56h1.56v1.51h-1.51Zm7.76,0h-3.08v-3.08h3.12v-1.56h3.08v1.51h-1.56v3.12h-1.56Zm3.17-1.51h1.51v1.51h-1.51v-1.51Zm-.05-9.37v4.64h-4.64v-4.64h4.64Zm-3.08-9.37h1.51v1.51h-1.51v-1.51Zm7.76-4.74h-1.51v-1.51h1.51v1.51Z"/><rect class="cls-1" y="14.06" width="1.61" height="1.61"/><polygon class="cls-1" points="3.12 14.11 3.12 15.67 4.74 15.67 4.74 14.11 4.74 14.06 4.74 12.5 3.12 12.5 3.12 14.06 3.12 14.11"/><rect class="cls-1" y="17.18" width="1.61" height="1.61"/><polygon class="cls-1" points="43.79 31.25 42.18 31.25 42.18 32.81 42.18 32.86 42.18 34.37 40.62 34.37 40.62 35.98 42.18 35.98 42.23 35.98 43.74 35.98 43.79 35.98 45.35 35.98 45.35 34.42 45.35 34.37 45.35 32.81 43.79 32.81 43.79 31.25"/><rect class="cls-1" x="34.37" y="34.37" width="1.61" height="1.61"/><polygon class="cls-1" points="20.36 37.54 20.36 37.49 20.36 35.98 20.36 35.93 20.36 34.37 18.75 34.37 18.75 35.93 18.75 35.98 18.75 37.49 18.75 37.54 18.75 39.11 20.36 39.11 20.36 37.54"/><path class="cls-1" d="M9.3,10.94h1.64V0H0V10.94H9.3ZM1.64,1.64h7.66v7.66H1.64V1.64Z"/><path class="cls-1" d="M43.67,10.94h1.64V0h-10.94V10.94h9.3ZM36.01,1.64h7.66v7.66h-7.66V1.64Z"/><path class="cls-1" d="M1.64,34.37H0v10.94H10.94v-10.94H1.64Zm7.66,9.3H1.64v-7.66h7.66v7.66Z"/><rect class="cls-1" x="3.12" y="3.12" width="4.69" height="4.69"/><rect class="cls-1" x="37.49" y="3.12" width="4.69" height="4.69"/><rect class="cls-1" x="3.12" y="37.49" width="4.69" height="4.69"/></svg>